<svg width="120" height="120" viewBox="0 0 120 120" fill="none" xmlns="http://www.w3.org/2000/svg">
    <path d="M113.143 40.7597C113.164 40.7201 113.182 40.6797 113.201 40.6371C113.21 40.6173 113.219 40.599 113.225 40.5792C113.245 40.5297 113.258 40.4779 113.271 40.4261C113.279 40.4155 113.282 40.4033 113.286 40.3926C113.3 40.3294 113.311 40.267 113.32 40.2015C113.32 40.184 113.323 40.1664 113.326 40.1482C113.33 40.1025 113.332 40.0545 113.332 40.008C113.335 39.9837 113.332 39.9585 113.332 39.9357C113.331 39.8931 113.327 39.8527 113.321 39.81C113.319 39.7857 113.316 39.7605 113.313 39.7362C113.31 39.7232 113.31 39.7103 113.308 39.6966C113.304 39.6661 113.293 39.6357 113.286 39.606C113.281 39.5854 113.278 39.5626 113.269 39.5412C113.251 39.4788 113.231 39.4171 113.207 39.3569C113.207 39.3547 113.206 39.3539 113.206 39.3524C113.201 39.3425 113.195 39.3341 113.192 39.325C113.169 39.2755 113.146 39.226 113.119 39.1787C113.109 39.1589 113.097 39.1407 113.086 39.1209C113.064 39.0836 113.039 39.0478 113.016 39.012C113.002 38.9922 112.991 38.9739 112.974 38.9564C112.946 38.9213 112.914 38.8878 112.885 38.8551C112.869 38.8406 112.857 38.8246 112.844 38.8117C112.758 38.7256 112.661 38.6487 112.558 38.5825L93.5424 26.7201C93.4001 26.6303 93.2465 26.5648 93.0794 26.5237L74.0648 21.7154C74.0054 21.7002 73.9474 21.6895 73.8857 21.6819C73.8751 21.6796 73.8631 21.6796 73.8563 21.6789C73.7991 21.672 73.7442 21.669 73.6877 21.6682C73.6824 21.6682 73.6772 21.6674 73.6696 21.6674L52.4347 21.6667C52.1765 21.6667 51.922 21.7276 51.6924 21.8472L35.5294 30.1836C35.5227 30.1867 35.5151 30.1935 35.5091 30.1966C35.4361 30.2362 35.3631 30.2788 35.2953 30.3306L35.29 30.3352C35.29 30.3352 35.2893 30.3352 35.2893 30.3359L20.3999 41.5508C20.3999 41.5508 20.3992 41.5516 20.3977 41.5531C20.3156 41.6156 20.2403 41.6849 20.1718 41.7602C20.1688 41.7625 20.1643 41.7671 20.1621 41.7686C20.0951 41.8448 20.0348 41.927 19.9829 42.0131C19.9799 42.0161 19.9776 42.0207 19.9754 42.0237L8.56544 61.2598C8.54587 61.2926 8.53081 61.3253 8.5135 61.3573C8.50673 61.3741 8.49619 61.3893 8.48941 61.4068C8.46156 61.4677 8.43672 61.5302 8.41489 61.5926C8.41037 61.6056 8.40811 61.6185 8.40435 61.6307C8.38779 61.684 8.37499 61.7366 8.3652 61.7899C8.36069 61.8104 8.35768 61.8325 8.35466 61.8554C8.34714 61.9033 8.34187 61.9505 8.3381 61.9985C8.33735 62.0115 8.33509 62.0237 8.33359 62.0366C8.33283 62.0465 8.33359 62.0564 8.33359 62.064C8.33283 62.1188 8.33359 62.1729 8.3366 62.227C8.33735 62.2414 8.33735 62.2551 8.33886 62.2704C8.34413 62.3382 8.35542 62.4059 8.36897 62.4699C8.37198 62.4874 8.37875 62.5019 8.38176 62.5194C8.39155 62.5575 8.39983 62.5948 8.41188 62.6329C8.41639 62.645 8.42166 62.6549 8.42467 62.6664C8.43295 62.6885 8.44199 62.7098 8.45027 62.7319C8.46683 62.7745 8.48339 62.8149 8.50447 62.8545C8.51501 62.8766 8.52705 62.8979 8.5391 62.92C8.56168 62.9603 8.58426 62.9984 8.60911 63.0365C8.6219 63.054 8.63319 63.0715 8.64448 63.0898C8.68212 63.1431 8.72428 63.1949 8.76869 63.2428C8.77697 63.2527 8.78676 63.2596 8.79579 63.268C8.83343 63.3076 8.87333 63.3457 8.91323 63.3814C8.93129 63.3959 8.95087 63.4096 8.96818 63.4241C9.00507 63.4523 9.0412 63.4789 9.07959 63.5041C9.09239 63.5117 9.10218 63.5208 9.11422 63.5284L68.063 99.7541C68.0675 99.7541 68.0698 99.7563 68.0758 99.7586L68.0781 99.7609C68.0826 99.7632 68.0856 99.7678 68.0901 99.7708C68.0924 99.7708 68.0931 99.7716 68.0946 99.7716C68.1488 99.8036 68.206 99.8317 68.2595 99.8553C68.264 99.8576 68.2693 99.8607 68.2761 99.8629C68.2858 99.8675 68.2986 99.8706 68.3062 99.8751C68.3159 99.8782 68.3235 99.8805 68.3287 99.8873C68.3431 99.8896 68.3528 99.8957 68.3656 99.898C68.3927 99.9102 68.4206 99.9178 68.4484 99.9254C68.4605 99.93 68.471 99.9338 68.4808 99.9383C68.4906 99.9383 68.4981 99.9406 68.5034 99.9429C68.5365 99.9513 68.5689 99.9597 68.605 99.9658C68.6201 99.9688 68.6351 99.9711 68.6517 99.9757H68.6562C68.6735 99.9779 68.6863 99.9825 68.7029 99.984C68.7608 99.9909 68.8181 99.997 68.8753 99.9985C68.8858 99.9993 68.8971 99.9993 68.9031 99.9993C68.9061 99.9993 68.9084 100 68.9099 100C68.9122 100 68.9144 99.9993 68.9152 99.9993C68.94 99.9993 68.9656 99.9985 68.9897 99.997C69.0002 99.9939 69.01 99.9901 69.0175 99.9901C69.0394 99.9901 69.0597 99.9901 69.0815 99.9878C69.0838 99.9878 69.0868 99.9878 69.0891 99.9855C69.1056 99.9855 69.1169 99.981 69.1312 99.9787C69.1553 99.9764 69.1809 99.9741 69.2035 99.968C69.208 99.9658 69.2163 99.9658 69.2215 99.9658C69.2298 99.9635 69.2396 99.9627 69.2456 99.9612C69.2539 99.9581 69.2607 99.9559 69.2682 99.9536C69.2848 99.9513 69.2961 99.946 69.3126 99.9414C69.345 99.933 69.3774 99.9262 69.4067 99.9163C69.4173 99.9132 69.424 99.9117 69.4316 99.9086C69.4368 99.9079 69.4421 99.9056 69.4481 99.9018C69.4624 99.8965 69.4737 99.8919 69.488 99.8873C69.5121 99.8744 69.537 99.8652 69.5603 99.8569C69.5784 99.8492 69.5934 99.8401 69.613 99.8325C69.6228 99.8279 69.6326 99.8249 69.6401 99.8203C69.6446 99.8173 69.6484 99.8157 69.6552 99.8127C69.6717 99.802 69.6883 99.7929 69.7071 99.783C69.7297 99.7708 69.7477 99.7601 69.7741 99.7472C69.7846 99.7388 69.7967 99.732 69.8087 99.7243C69.8155 99.7198 69.823 99.716 69.8313 99.7114C69.8381 99.7046 69.8456 99.6985 69.8539 99.6916C69.8765 99.6771 69.893 99.6642 69.9119 99.6482C69.9247 99.6398 69.9359 99.6299 69.9487 99.6223C69.963 99.6116 69.9728 99.5995 69.9879 99.5873C69.9909 99.5842 69.9947 99.5819 69.9977 99.5774C70.0029 99.5728 70.012 99.5667 70.018 99.5621C70.0263 99.5545 70.0346 99.5454 70.0406 99.5393C70.0571 99.5248 70.0677 99.5134 70.0805 99.4982C70.0985 99.4829 70.1083 99.4685 70.1249 99.4525C70.1347 99.4403 70.1452 99.4319 70.1505 99.4228C70.1527 99.4205 70.155 99.4197 70.158 99.4152C70.161 99.4121 70.1648 99.4083 70.1678 99.403C70.1723 99.3977 70.1761 99.3931 70.1806 99.3862C70.1889 99.3756 70.2002 99.3634 70.2062 99.3535C70.213 99.3413 70.2212 99.3352 70.2288 99.3253L113.013 40.9767C113.023 40.9661 113.029 40.9524 113.035 40.941C113.063 40.9014 113.088 40.8625 113.11 40.8229C113.121 40.7993 113.133 40.7788 113.143 40.7582L113.143 40.7597ZM81.577 29.7922L90.2115 35.0338L79.6929 33.2869L81.577 29.7922ZM42.4796 45.1498L50.222 56.6366L36.6109 67.4335L27.8101 54.8624L42.4796 45.1498ZM52.5247 59.0117L64.7371 67.0183L53.3054 68.1507H41.0049L52.5247 59.0117ZM63.0591 42.9634L76.2832 52.0605L68.9482 65.8388L54.6756 56.4789L63.0591 42.9634ZM67.4071 92.276L55.6651 71.2409L67.8731 70.0324L67.4071 92.276ZM25.9084 57.8673L32.5487 67.3491L22.9794 65.3752L25.9084 57.8673ZM52.1096 71.4612C52.145 71.6143 52.1992 71.7612 52.279 71.9036L62.8662 90.8656L40.6638 71.4613L52.1096 71.4612ZM71.1596 69.3372L81.6505 65.1351L70.7239 90.1179L71.1596 69.3372ZM84.0788 60.6072L73.1108 64.998L79.289 53.3961L92.5892 56.0859L84.0788 60.6072ZM79.9581 50.1569L78.9418 36.5127L96.6773 39.4582L95.9125 53.3835L79.9581 50.1569ZM99.9212 39.9592L108.678 41.2249L106.042 44.654L99.3031 51.2535L99.9212 39.9592ZM75.6933 36.9398L76.5365 48.2348L66.0036 40.9882L75.6933 36.9398ZM52.379 53.9629L45.8065 44.2115L59.3883 42.6602L52.379 53.9629ZM28.7582 50.2816L34.1091 40.5394L39.5765 43.1193L28.7582 50.2816ZM22.4831 44.2282L29.8521 41.4806L24.0684 52.0118C23.8365 52.4352 23.8087 52.9165 23.951 53.3429L14.2167 58.1664L22.4831 44.2282ZM13.9473 61.9815L22.4274 57.781L19.831 64.4328L13.9473 61.9815ZM35.5253 71.3399L53.035 86.6474L24.3921 69.0424L35.5253 71.3399ZM86.0256 63.3082L96.7377 57.6203L76.3545 85.4183L86.0256 63.3082ZM104.159 37.2297L98.9472 36.4766L84.6556 27.8021L92.0427 29.6701L104.159 37.2297ZM52.8286 24.973H73.2407L78.7511 28.125L75.9967 33.234L62.1651 39.0125L43.2018 41.1798L35.5467 37.5648L37.5423 32.8548L52.8286 24.973Z" fill="#0E0E0E"/>
</svg>
