<svg width="120" height="120" viewBox="0 0 120 120" fill="none" xmlns="http://www.w3.org/2000/svg">
    <path fill-rule="evenodd" clip-rule="evenodd" d="M0 42.6289V85.4586H4.27073V42.6289H0Z" fill="#0E0E0E"/>
    <path fill-rule="evenodd" clip-rule="evenodd" d="M1.07495 61.8926V66.195H14.9932V61.8926H1.07495Z" fill="#0E0E0E"/>
    <path fill-rule="evenodd" clip-rule="evenodd" d="M39.7615 31.9061C38.2598 31.9061 36.8652 32.7057 36.0924 33.9941L30.9358 42.6296H17.1439C14.8023 42.6296 12.8416 44.5589 12.8416 46.9004V85.4596C12.8416 87.8011 14.8024 89.7619 17.1439 89.7619H29.1328C30.5924 89.7619 32.01 90.2411 33.1501 91.1527L39.1599 95.9927C41.0595 97.5116 43.4335 98.3333 45.8661 98.3333H87.8436C90.1852 98.3333 92.1144 96.3724 92.1144 94.031V81.1879H99.0424L100.751 88.1169C100.981 89.083 101.845 89.7641 102.839 89.7622H113.562C117.087 89.7622 119.983 86.8649 119.983 83.341V53.3228C119.983 49.7979 117.086 46.9016 113.562 46.9016H102.839V46.9006C101.855 46.8949 100.994 47.5606 100.751 48.5143L99.0424 55.4729H92.1144V46.9006C92.1144 44.5591 90.1851 42.6299 87.8436 42.6299H76.2029L71.0146 33.9944C70.2418 32.7069 68.8472 31.9063 67.3456 31.9063H59.9746V36.1771H67.3456L73.166 45.8569L73.167 45.8559C73.5525 46.5025 74.2488 46.8995 75.0016 46.9014H87.8446V57.6249C87.8427 58.1959 88.0685 58.744 88.4721 59.1477C88.8758 59.5513 89.4248 59.778 89.9958 59.7751H100.688C101.681 59.777 102.544 59.096 102.775 58.1299L104.515 51.2019H113.561C114.77 51.2019 115.713 52.1125 115.713 53.3215V83.3398C115.713 84.5478 114.77 85.4594 113.561 85.4594H104.515L102.775 78.5323C102.544 77.5663 101.681 76.8852 100.688 76.8871H89.9958C89.4248 76.8852 88.8758 77.1109 88.4721 77.5146C88.0685 77.9182 87.8427 78.4673 87.8446 79.0383V94.0325H45.8671C44.4074 94.0325 42.9899 93.5533 41.8498 92.6417L35.8074 87.8323C33.9078 86.3134 31.5653 85.4602 29.1328 85.4602H17.1439V46.9009H32.1381V46.9C32.8909 46.8981 33.5872 46.5011 33.9727 45.8555L39.7616 36.1756H47.1326V31.9049H39.7616L39.7615 31.9061Z" fill="#0E0E0E"/>
    <path fill-rule="evenodd" clip-rule="evenodd" d="M47.1321 38.3265V42.6288H59.9751V38.3265H47.1321Z" fill="#0E0E0E"/>
    <path fill-rule="evenodd" clip-rule="evenodd" d="M36.4094 23.3333V27.6356H70.7006V23.3333H36.4094Z" fill="#0E0E0E"/>
    <path fill-rule="evenodd" clip-rule="evenodd" d="M51.4343 24.4083V41.5539H55.7051V24.4083H51.4343Z" fill="#0E0E0E"/>
</svg>
