<svg width="77" height="64" viewBox="0 0 77 64" fill="none" xmlns="http://www.w3.org/2000/svg">
    <path fill-rule="evenodd" clip-rule="evenodd" d="M21.5213 0.485451C27.5071 0.481815 39.4861 0.481814 45.7225 0.567269C51.9572 0.652724 52.4475 0.825452 52.9869 1.04C53.5263 1.25454 54.1147 1.51272 54.6105 1.81818C55.1063 2.12545 55.5112 2.48 55.9144 2.88545C56.3194 3.29091 56.7226 3.74363 57.1203 4.30182C57.518 4.86 57.9103 5.52181 58.21 6.23272C58.5096 6.94363 58.7185 7.70363 58.8347 8.49454C58.9509 9.28545 58.9764 10.1073 58.8965 10.8982C58.8165 11.6891 58.6331 12.4491 58.3207 13.1309C58.0084 13.8127 57.5671 14.4127 55.0046 17.0564C52.4421 19.7 47.7565 24.3891 45.412 26.7327C43.0692 29.0764 43.0674 29.0764 43.0674 29.0764C43.0674 29.0764 43.0692 29.0764 43.4451 29.7418C43.8229 30.4091 44.5766 31.7418 44.9525 32.4091C45.3302 33.0764 45.3302 33.0764 45.3302 33.0764C45.3302 33.0764 45.3302 33.0764 42.8495 33.0764C40.3687 33.0764 35.4071 33.0764 32.9263 33.0764C30.4456 33.0764 30.4456 33.0764 30.4401 33.0709C30.4347 33.0655 30.4219 33.0527 33.8453 29.6127C37.2686 26.1727 44.128 19.3055 47.7856 15.6636C51.4414 12.0218 51.8954 11.6036 52.2023 11.1745C52.5093 10.7455 52.6673 10.3036 52.7108 9.85636C52.7544 9.40909 52.68 8.95454 52.5329 8.54363C52.3858 8.13273 52.166 7.76545 51.9626 7.49454C51.761 7.22545 51.5776 7.05272 51.3815 6.94909C51.1853 6.84545 50.9765 6.80727 50.8003 6.76545C50.6223 6.72182 50.4752 6.67273 46.3418 6.64909C42.2084 6.62363 34.0868 6.62363 30.0188 6.63091C25.9525 6.63636 25.9398 6.64909 25.9217 6.67454C25.9053 6.7 25.8835 6.73818 26.7643 8.57636C27.6451 10.4145 29.4304 14.0545 30.3257 15.88C31.221 17.7055 31.2283 17.7182 31.2283 17.7218C31.2301 17.7255 31.2265 17.7182 30.4383 18.4855C29.6501 19.2527 28.0756 20.7927 27.3001 21.5782C26.5246 22.3618 26.5464 22.3891 26.5428 22.3964C26.541 22.4054 26.5137 22.3945 24.7775 18.9291C23.0413 15.4636 19.5962 8.54181 17.8564 5.05636C16.1166 1.57091 16.0784 1.52182 15.9931 1.36363C15.9077 1.20363 15.7752 0.934542 15.7025 0.783633C15.6299 0.632724 15.6153 0.599997 15.6026 0.57636C15.5899 0.552724 15.579 0.538178 15.5699 0.527269C15.5627 0.51636 15.559 0.510906 15.5518 0.505451C15.5445 0.498179 15.5354 0.489088 21.5213 0.485451Z" fill="#0E0E0E"/>
    <path fill-rule="evenodd" clip-rule="evenodd" d="M32.2343 10.6927C32.2252 10.6982 32.247 10.7309 32.5558 11.3436C32.8645 11.9582 33.462 13.1527 33.7653 13.7927C34.0686 14.4327 34.0795 14.5182 34.0795 14.5509C34.0795 14.5836 34.0686 14.5618 31.7712 16.8145C29.4739 19.0673 24.8882 23.5927 22.4583 26.0691C20.0265 28.5455 19.7505 28.9727 19.4145 29.6236C19.0785 30.2745 18.6845 31.1491 18.4393 32.02C18.1941 32.8909 18.0979 33.7545 18.205 34.7164C18.3122 35.6764 18.6209 36.7345 18.9732 37.5673C19.3255 38.4 19.7196 39.0091 20.1827 39.5691C20.6458 40.1291 21.1798 40.6418 21.7119 41.0855C22.2458 41.5291 22.7779 41.9018 23.3173 42.1909C23.8549 42.48 24.3997 42.6818 24.9427 42.82C25.4857 42.9582 26.0305 43.0327 32.198 43.0709C38.3654 43.1091 50.1591 43.1091 56.0487 43.1182C61.9383 43.1291 61.9274 43.1491 61.9274 43.16C61.9274 43.1691 61.9401 43.1691 61.4044 42.0818C60.8668 40.9945 59.7808 38.8218 59.2414 37.7436C58.702 36.6655 58.7111 36.68 58.7148 36.6854C58.7184 36.6909 58.7148 36.6855 53.4372 36.6764C48.1596 36.6673 37.6063 36.6527 32.307 36.6582C27.0076 36.6636 26.9622 36.6909 26.7969 36.6745C26.6317 36.6582 26.3465 36.6 26.0868 36.4745C25.8271 36.3491 25.5929 36.1564 25.4004 35.96C25.2079 35.7618 25.0589 35.56 24.9482 35.3564C24.8356 35.1527 24.7611 34.9509 24.6975 34.5455C24.634 34.14 24.5795 33.5309 25.3041 32.4745C26.0287 31.4182 27.5325 29.9127 31.2482 26.22C34.9639 22.5273 40.8934 16.6455 43.8519 13.6927C46.8103 10.7418 46.7994 10.72 46.8266 10.7145C46.8539 10.7091 46.9174 10.72 44.5765 10.7255C42.2355 10.7309 37.4919 10.7309 35.0711 10.7309C32.652 10.7309 32.5558 10.7309 32.4849 10.7309C32.4141 10.7309 32.3651 10.7309 32.3215 10.72C32.2815 10.7091 32.2434 10.6873 32.2343 10.6927Z" fill="#F49624"/>
    <path fill-rule="evenodd" clip-rule="evenodd" d="M76.8956 53.0582L71.8886 58.2109L76.6704 63.1818H72.675L69.2389 59.56L65.7883 63.1818H61.8057L66.5747 58.2109L61.5823 53.0582H65.634L69.2389 56.8218L72.8293 53.0582H76.8956Z" fill="#0E0E0E"/>
    <path d="M58.2992 53.0582H55.1719V63.1818H58.2992V53.0582Z" fill="#0E0E0E"/>
    <path fill-rule="evenodd" clip-rule="evenodd" d="M51.9082 60.5709L49.876 63.1818H40.9426V53.0582H44.0699V60.5709H51.9082Z" fill="#0E0E0E"/>
    <path fill-rule="evenodd" clip-rule="evenodd" d="M38.0842 56.8491C38.0842 57.9909 37.5939 58.9182 36.6114 59.6291C35.667 60.3036 34.4993 60.64 33.1063 60.64H27.8197V63.1818H24.6924V58.0145H33.4151C33.8455 58.0145 34.2069 57.9073 34.5011 57.6909C34.7953 57.4763 34.9424 57.1909 34.9424 56.8345C34.9424 56.4782 34.7953 56.1982 34.5011 55.9927C34.2069 55.7873 33.8437 55.6836 33.4151 55.6836H24.6924L26.7682 53.0582H33.1209C34.5047 53.0582 35.6688 53.3945 36.6132 54.0691C37.5939 54.7818 38.0842 55.7073 38.0842 56.8491Z" fill="#0E0E0E"/>
    <path d="M20.2645 53.0582H17.1372V63.1818H20.2645V53.0582Z" fill="#0E0E0E"/>
    <path fill-rule="evenodd" clip-rule="evenodd" d="M13.6359 63.1818H2.52867C2.0238 63.1818 1.60791 63.0982 1.28102 62.9291C0.879662 62.7236 0.678076 62.4236 0.678076 62.0309C0.678076 61.6 0.930512 61.1745 1.43539 60.7527L7.50658 55.6836H0.452881L2.4306 53.0582H11.0407C11.5365 53.0582 11.9615 53.1654 12.3174 53.3818C12.7188 53.6163 12.9204 53.9345 12.9204 54.3363C12.9204 54.7382 12.7006 55.1273 12.2611 55.5018L6.1881 60.5709H11.7562L13.6359 63.1818Z" fill="#0E0E0E"/>
</svg>
