<svg width="120" height="120" viewBox="0 0 120 120" xmlns="http://www.w3.org/2000/svg">
    <path d="M25.0459 60.3464L24.1156 59.8576L23.1854 60.3464L17.0203 63.5859L18.1981 56.7224L18.3761 55.685L17.6217 54.9509L12.6343 50.0973L19.5303 49.0934L20.5709 48.942L21.036 47.9988L24.1167 41.7507L27.2007 47.9994L27.6659 48.942L28.7061 49.0934L35.6008 50.0971L30.6111 54.9505L29.8564 55.6847L30.0344 56.7224L31.2123 63.5862L25.0459 60.3464Z" fill="none" stroke="black" stroke-width="4"/>
    <path d="M66.361 27.7292L65.6076 28.4632L65.7854 29.4998L66.9634 36.367L60.7986 33.1255L59.8678 32.636L58.937 33.1255L52.7721 36.367L53.95 29.4998L54.1278 28.4631L53.3745 27.7292L48.3861 22.8692L55.276 21.8712L56.3175 21.7204L56.783 20.7765L59.8667 14.5235L62.9472 20.7758L63.4126 21.7204L64.4547 21.8712L71.3491 22.8695L66.361 27.7292Z" fill="none" stroke="black" stroke-width="4"/>
    <path d="M38.917 91.076L39.3825 92.0199L40.4242 92.1707L47.3187 93.169L42.3267 98.0325L41.5733 98.7666L41.7511 99.8033L42.9287 106.666L36.7633 103.424L35.8323 102.934L34.9015 103.424L28.7371 106.666L29.9146 99.8033L30.0924 98.767L29.3395 98.033L24.3503 93.1691L31.2453 92.1707L32.2874 92.0198L32.7528 91.0753L35.8333 84.823L38.917 91.076Z" fill="none" stroke="black" stroke-width="4"/>
    <path d="M98.4724 47.998L98.9374 48.9412L99.9781 49.0927L106.874 50.0965L101.887 54.9501L101.132 55.6843L101.31 56.7217L102.488 63.5852L96.3229 60.3457L95.3927 59.8569L94.4624 60.3457L88.2961 63.5854L89.4739 56.7217L89.652 55.6839L88.8972 54.9498L83.9076 50.0964L90.8022 49.0927L91.8424 48.9413L92.3076 47.9987L95.3916 41.7499L98.4724 47.998Z" fill="none" stroke="black" stroke-width="4"/>
    <path d="M86.756 91.0753L87.2214 92.0198L88.2635 92.1707L95.1587 93.1691L90.1695 98.033L89.4165 98.767L89.5944 99.8033L90.7719 106.666L84.6075 103.424L83.6766 102.934L82.7457 103.424L76.5803 106.666L77.7578 99.8033L77.9357 98.7666L77.1823 98.0325L72.1902 93.169L79.0847 92.1707L80.1263 92.0199L80.5918 91.076L83.6755 84.823L86.756 91.0753Z" fill="none" stroke="black" stroke-width="4"/>
</svg>
