<svg xmlns="http://www.w3.org/2000/svg" xmlns:xlink="http://www.w3.org/1999/xlink"><symbol id="diamond" viewBox="0 0 120 120"><path d="M113.143 40.76c.021-.04.039-.08.058-.123.009-.02.018-.038.024-.058.02-.05.033-.101.046-.153.008-.01.011-.023.015-.033a2.36 2.36 0 00.034-.191c0-.018.003-.036.006-.054a1.63 1.63 0 00.006-.14c.003-.024 0-.05 0-.072a1.068 1.068 0 00-.011-.126 1.848 1.848 0 00-.008-.074c-.003-.013-.003-.026-.005-.04-.004-.03-.015-.06-.022-.09-.005-.02-.008-.043-.017-.065a1.974 1.974 0 00-.062-.184l-.001-.005c-.005-.01-.011-.018-.014-.027a1.954 1.954 0 00-.073-.146c-.01-.02-.022-.038-.033-.058-.022-.037-.047-.073-.07-.109-.014-.02-.025-.038-.042-.056-.028-.035-.06-.068-.089-.1-.016-.015-.028-.031-.041-.044a1.717 1.717 0 00-.286-.23L93.542 26.72a1.557 1.557 0 00-.463-.196l-19.014-4.809a1.403 1.403 0 00-.18-.033l-.029-.003a1.575 1.575 0 00-.168-.01l-.018-.002H52.435c-.259 0-.513.06-.743.18L35.53 30.184l-.02.013a1.66 1.66 0 00-.214.134l-.005.004L20.4 41.552l-.002.002a1.684 1.684 0 00-.226.207l-.01.009a1.702 1.702 0 00-.18.244c-.002.003-.004.008-.007.01L8.565 61.26c-.02.033-.034.065-.051.097-.007.017-.018.032-.025.05-.027.06-.052.123-.074.186-.005.013-.007.025-.01.038a1.364 1.364 0 00-.05.224 1.852 1.852 0 00-.017.144c0 .012-.003.025-.004.038v.027c-.001.055 0 .109.003.163a1.551 1.551 0 00.032.243c.003.017.01.032.013.05.01.037.018.075.03.113.004.012.01.022.013.033l.025.066c.017.043.033.083.054.123l.035.065a2 2 0 00.105.17c.038.053.08.105.125.153.008.01.018.017.027.025.037.04.077.078.117.113l.055.043c.037.028.073.055.112.08.012.008.022.017.034.024l58.949 36.226c.004 0 .007.002.013.005l.002.002c.005.002.008.007.012.01h.005c.054.033.111.06.165.084l.016.008c.01.005.023.008.03.012.01.003.017.005.023.012.014.003.024.009.037.011.027.012.055.02.082.027l.033.013c.01 0 .017.003.022.005.034.008.066.017.102.023.015.003.03.005.047.01h.004c.017.002.03.007.047.008.058.007.115.013.172.015h.028l.007.001h.005l.075-.003c.01-.003.02-.007.028-.007.021 0 .042 0 .064-.002.002 0 .005 0 .007-.002.017 0 .028-.005.042-.007.024-.003.05-.005.073-.011.004-.002.012-.002.018-.002l.024-.005a.376.376 0 01.022-.007c.017-.003.028-.008.045-.013.032-.008.064-.015.094-.025l.025-.007a.043.043 0 00.016-.007l.04-.015a.522.522 0 01.072-.03c.018-.008.033-.017.053-.025.01-.004.02-.007.027-.012l.015-.007a.649.649 0 01.052-.03c.023-.012.04-.023.067-.036.01-.008.023-.015.035-.023l.022-.013.023-.02a.512.512 0 00.058-.043l.037-.026c.014-.01.024-.022.039-.035.003-.003.007-.005.01-.01l.02-.015.023-.023a.348.348 0 00.04-.04c.017-.016.027-.03.044-.046.01-.013.02-.021.025-.03.003-.002.005-.003.008-.008l.01-.012a.153.153 0 00.013-.017c.008-.01.02-.023.025-.032.007-.013.015-.019.023-.029l42.784-58.348c.01-.01.016-.025.022-.036a1.44 1.44 0 00.075-.118c.011-.024.023-.044.033-.065v.002zM81.577 29.792l8.635 5.242-10.52-1.747 1.885-3.495zM42.48 45.15l7.742 11.487-13.611 10.796-8.8-12.57L42.48 45.15zm10.045 13.862l12.212 8.006-11.432 1.133h-12.3l11.52-9.14zm10.534-16.049l13.224 9.097-7.335 13.779-14.272-9.36 8.383-13.516zm4.348 49.313L55.665 71.241l12.208-1.209-.466 22.244zM25.908 57.867l6.64 9.482-9.569-1.974 2.93-7.508zM52.11 71.461c.035.153.09.3.169.443l10.587 18.962L40.664 71.46H52.11zm19.05-2.124l10.49-4.202-10.926 24.983.436-20.78zm12.919-8.73L73.11 64.998l6.178-11.602 13.3 2.69-8.51 4.521zm-4.12-10.45l-1.017-13.644 17.735 2.945-.765 13.925-15.954-3.226zM99.92 39.959l8.757 1.266-2.636 3.429-6.739 6.6.618-11.295zm-24.228-3.02l.844 11.296-10.533-7.247 9.69-4.048zM52.38 53.964l-6.572-9.752 13.581-1.55-7.009 11.302zm-23.62-3.681l5.35-9.743 5.468 2.58-10.819 7.163zm-6.276-6.054l7.37-2.747-5.785 10.53c-.232.424-.26.905-.117 1.332l-9.734 4.823 8.266-13.938zm-8.536 17.753l8.48-4.2-2.596 6.652-5.884-2.452zm21.578 9.359l17.51 15.307-28.643-17.605 11.133 2.298zm50.5-8.032l10.713-5.688-20.383 27.798 9.67-22.11zM104.16 37.23l-5.212-.753-14.291-8.675 7.387 1.868 12.116 7.56zM52.83 24.973h20.41l5.51 3.152-2.754 5.109-13.832 5.779-18.963 2.167-7.655-3.615 1.995-4.71 15.287-7.882z" fill="#0E0E0E"/></symbol><symbol id="engine" viewBox="0 0 120 120"><path fill-rule="evenodd" clip-rule="evenodd" d="M0 42.629v42.83h4.27v-42.83H0z" fill="#0E0E0E"/><path fill-rule="evenodd" clip-rule="evenodd" d="M1.075 61.893v4.302h13.918v-4.302H1.075z" fill="#0E0E0E"/><path fill-rule="evenodd" clip-rule="evenodd" d="M39.761 31.906a4.29 4.29 0 00-3.669 2.088l-5.156 8.636H17.144c-2.342 0-4.302 1.929-4.302 4.27v38.56c0 2.341 1.96 4.302 4.302 4.302h11.989c1.46 0 2.877.48 4.017 1.39l6.01 4.84a10.75 10.75 0 006.706 2.341h41.978c2.341 0 4.27-1.96 4.27-4.302V81.188h6.928l1.709 6.929a2.141 2.141 0 002.088 1.645h10.723c3.525 0 6.421-2.897 6.421-6.421V53.323c0-3.525-2.897-6.421-6.421-6.421h-10.723V46.9a2.142 2.142 0 00-2.088 1.613l-1.709 6.959h-6.928V46.9c0-2.342-1.929-4.271-4.27-4.271H76.203l-5.188-8.636a4.293 4.293 0 00-3.67-2.088h-7.37v4.271h7.37l5.821 9.68.001-.001a2.142 2.142 0 001.835 1.045h12.843v10.724a2.144 2.144 0 002.15 2.15h10.693a2.142 2.142 0 002.087-1.645l1.74-6.928h9.046c1.209 0 2.152.91 2.152 2.12V83.34c0 1.208-.943 2.12-2.152 2.12h-9.046l-1.74-6.928a2.142 2.142 0 00-2.087-1.645H89.996a2.145 2.145 0 00-2.151 2.151v14.995H45.867a6.42 6.42 0 01-4.017-1.391l-6.043-4.81c-1.9-1.519-4.242-2.372-6.674-2.372h-11.99V46.9h14.995a2.143 2.143 0 001.835-1.044l5.789-9.68h7.37v-4.271h-7.37v.001z" fill="#0E0E0E"/><path fill-rule="evenodd" clip-rule="evenodd" d="M47.132 38.327v4.302h12.843v-4.302H47.132zM36.41 23.333v4.303H70.7v-4.303H36.41z" fill="#0E0E0E"/><path fill-rule="evenodd" clip-rule="evenodd" d="M51.434 24.408v17.146h4.271V24.408h-4.27z" fill="#0E0E0E"/></symbol><symbol id="logo" viewBox="0 0 77 64"><path fill-rule="evenodd" clip-rule="evenodd" d="M21.521.485C27.507.482 39.486.482 45.722.567c6.235.086 6.725.258 7.265.473.54.215 1.128.473 1.623.778.496.307.901.662 1.304 1.067.405.406.809.859 1.206 1.417.398.558.79 1.22 1.09 1.93.3.712.508 1.472.625 2.263.116.79.141 1.612.062 2.403-.08.791-.264 1.551-.576 2.233-.313.682-.754 1.282-3.316 3.925-2.563 2.644-7.248 7.333-9.593 9.677-2.343 2.343-2.345 2.343-2.345 2.343s.002 0 .378.666l1.508 2.667.377.667H32.926c-2.48 0-2.48 0-2.486-.005-.005-.005-.018-.018 3.405-3.458a5633.74 5633.74 0 0113.94-13.95c3.656-3.641 4.11-4.06 4.417-4.489.307-.428.465-.87.509-1.318a3.054 3.054 0 00-.178-1.312 4.093 4.093 0 00-.57-1.05c-.202-.269-.385-.441-.581-.545-.197-.104-.405-.142-.582-.184-.178-.043-.325-.092-4.458-.116-4.134-.025-12.255-.025-16.323-.018-4.066.005-4.08.018-4.097.044-.017.025-.038.063.842 1.901.881 1.838 2.666 5.479 3.562 7.304.895 1.825.902 1.838.902 1.842.002.003-.002-.004-.79.763a294.83 294.83 0 00-3.138 3.093c-.775.784-.754.811-.757.818-.002.01-.03-.002-1.765-3.467-1.737-3.465-5.182-10.387-6.922-13.873-1.74-3.485-1.778-3.534-1.863-3.692a19.26 19.26 0 01-.29-.58l-.1-.208a.28.28 0 00-.033-.049.077.077 0 00-.018-.022c-.008-.007-.017-.016 5.97-.02z" fill="#0E0E0E"/><path fill-rule="evenodd" clip-rule="evenodd" d="M32.234 10.693c-.009.005.013.038.322.65.309.615.906 1.81 1.21 2.45.303.64.314.725.314.758 0 .033-.011.01-2.309 2.263-2.297 2.253-6.883 6.779-9.313 9.255-2.431 2.477-2.707 2.904-3.043 3.555-.337.65-.73 1.525-.976 2.396a6.87 6.87 0 00-.234 2.696c.107.96.416 2.018.768 2.851a7.75 7.75 0 001.21 2.002c.463.56.997 1.073 1.529 1.517a9.728 9.728 0 001.605 1.105 7.12 7.12 0 001.626.629c.543.138 1.087.213 7.255.25 6.167.04 17.961.04 23.85.048 5.89.011 5.88.031 5.88.042 0 .01.012.01-.524-1.078a1168.86 1168.86 0 00-2.163-4.338c-.539-1.078-.53-1.064-.526-1.059.003.006 0 0-5.278-.009-5.277-.009-15.83-.023-21.13-.018-5.3.006-5.345.033-5.51.017a2.263 2.263 0 01-.71-.2 2.544 2.544 0 01-.687-.515 2.767 2.767 0 01-.452-.604c-.112-.203-.187-.405-.25-.81-.064-.406-.119-1.015.606-2.072.725-1.056 2.229-2.561 5.944-6.254 3.716-3.693 9.645-9.575 12.604-12.527 2.958-2.951 2.947-2.973 2.975-2.979.027-.005.09.006-2.25.011-2.341.006-7.085.006-9.506.006h-2.586c-.07 0-.12 0-.163-.011-.04-.01-.079-.033-.088-.027z" fill="#F49624"/><path fill-rule="evenodd" clip-rule="evenodd" d="M76.896 53.058l-5.007 5.153 4.781 4.97h-3.995l-3.436-3.621-3.45 3.622h-3.983l4.769-4.971-4.993-5.153h4.052l3.605 3.764 3.59-3.764h4.067z" fill="#0E0E0E"/><path d="M58.3 53.058h-3.128v10.124h3.127V53.058z" fill="#0E0E0E"/><path fill-rule="evenodd" clip-rule="evenodd" d="M51.908 60.57l-2.032 2.612h-8.933V53.058h3.127v7.513h7.838zm-13.824-3.72c0 1.14-.49 2.068-1.473 2.78-.944.674-2.112 1.01-3.505 1.01H27.82v2.542h-3.128v-5.168h8.723c.43 0 .792-.107 1.086-.323.294-.215.441-.5.441-.857a.973.973 0 00-.44-.841c-.295-.206-.658-.31-1.087-.31h-8.723l2.076-2.625h6.353c1.384 0 2.548.337 3.492 1.011.98.713 1.471 1.638 1.471 2.78z" fill="#0E0E0E"/><path d="M20.265 53.058h-3.128v10.124h3.128V53.058z" fill="#0E0E0E"/><path fill-rule="evenodd" clip-rule="evenodd" d="M13.636 63.182H2.529c-.505 0-.921-.084-1.248-.253-.401-.205-.603-.505-.603-.898 0-.431.253-.856.757-1.278l6.072-5.07H.453l1.978-2.625h8.61c.495 0 .92.107 1.276.324.402.234.603.553.603.954 0 .402-.22.791-.659 1.166L6.188 60.57h5.568l1.88 2.61z" fill="#0E0E0E"/></symbol><symbol id="stars" viewBox="0 0 120 120"><path d="M25.046 60.346l-.93-.488-.93.488-6.166 3.24 1.178-6.864.178-1.037-.754-.734-4.988-4.854 6.896-1.004 1.04-.151.466-.943 3.08-6.248 3.085 6.248.465.943 1.04.151 6.895 1.004-4.99 4.853-.755.735.178 1.037 1.178 6.864-6.166-3.24zM66.361 27.73l-.753.733.177 1.037 1.178 6.867-6.164-3.241-.931-.49-.931.49-6.165 3.241L53.95 29.5l.178-1.037-.754-.734-4.988-4.86 6.89-.998 1.041-.15.466-.945 3.084-6.252 3.08 6.252.466.944 1.042.151 6.894.998-4.988 4.86zM38.917 91.076l.465.944 1.042.15 6.895.999-4.992 4.864-.754.734.178 1.036 1.178 6.863-6.166-3.242-.93-.49-.931.49-6.165 3.242 1.178-6.863.177-1.036-.752-.734-4.99-4.864 6.895-.998 1.042-.151.466-.945 3.08-6.252 3.084 6.253zm59.555-43.078l.465.943 1.041.152 6.896 1.003-4.987 4.854-.755.734.178 1.038 1.178 6.863-6.165-3.24-.93-.488-.93.489-6.167 3.24 1.178-6.864.178-1.038-.755-.734-4.99-4.854 6.895-1.003 1.04-.152.466-.942 3.084-6.25 3.08 6.249zM86.756 91.075l.465.945 1.042.15 6.896 1-4.99 4.863-.752.734.177 1.036 1.178 6.863-6.165-3.242-.93-.49-.931.49-6.166 3.242 1.178-6.863.178-1.036-.754-.734-4.992-4.864 6.895-.998 1.041-.151.466-.944 3.084-6.253 3.08 6.252z" fill="none" stroke="#000" stroke-width="4"/></symbol></svg>